<svg width="27" height="27" viewBox="0 0 27 27" fill="none" xmlns="http://www.w3.org/2000/svg">
<g clip-path="url(#clip0_202_1640)">
<path fill-rule="evenodd" clip-rule="evenodd" d="M9.375 3.75C9.79358 3.75 10.1614 4.02748 10.2764 4.42995L11.2929 7.98769C11.7378 9.54491 12.9551 10.7622 14.5123 11.2071L18.0701 12.2236C18.4725 12.3386 18.75 12.7064 18.75 13.125C18.75 13.5436 18.4725 13.9114 18.0701 14.0264L14.5123 15.0429C12.9551 15.4878 11.7378 16.7051 11.2929 18.2623L10.2764 21.8201C10.1614 22.2225 9.79358 22.5 9.375 22.5C8.95642 22.5 8.58856 22.2225 8.47357 21.8201L7.45707 18.2623C7.01215 16.7051 5.79491 15.4878 4.23768 15.0429L0.679949 14.0264C0.277479 13.9114 0 13.5436 0 13.125C0 12.7064 0.277479 12.3386 0.679949 12.2236L4.23769 11.2071C5.79491 10.7622 7.01215 9.54491 7.45708 7.98768L8.47357 4.42995C8.58856 4.02748 8.95642 3.75 9.375 3.75Z" fill="#959595"/>
<path fill-rule="evenodd" clip-rule="evenodd" d="M20.625 0C21.0552 0 21.4302 0.292779 21.5345 0.710123L21.8581 2.00445C22.152 3.18007 23.0699 4.098 24.2455 4.39191L25.5399 4.71549C25.9572 4.81983 26.25 5.19481 26.25 5.625C26.25 6.05519 25.9572 6.43017 25.5399 6.53451L24.2455 6.85809C23.0699 7.152 22.152 8.06993 21.8581 9.24555L21.5345 10.5399C21.4302 10.9572 21.0552 11.25 20.625 11.25C20.1948 11.25 19.8198 10.9572 19.7155 10.5399L19.3919 9.24555C19.098 8.06993 18.1801 7.152 17.0045 6.85809L15.7101 6.53451C15.2928 6.43017 15 6.05519 15 5.625C15 5.19481 15.2928 4.81983 15.7101 4.71549L17.0045 4.39191C18.1801 4.098 19.098 3.18007 19.3919 2.00445L19.7155 0.710123C19.8198 0.292779 20.1948 0 20.625 0Z" fill="#959595"/>
<path fill-rule="evenodd" clip-rule="evenodd" d="M18.75 16.875C19.1535 16.875 19.5118 17.1332 19.6394 17.516L20.1322 18.9945C20.3188 19.5543 20.7582 19.9937 21.3181 20.1803L22.7965 20.6731C23.1793 20.8007 23.4375 21.159 23.4375 21.5625C23.4375 21.966 23.1793 22.3243 22.7965 22.4519L21.3181 22.9447C20.7582 23.1313 20.3188 23.5707 20.1322 24.1306L19.6394 25.609C19.5118 25.9918 19.1535 26.25 18.75 26.25C18.3465 26.25 17.9882 25.9918 17.8606 25.609L17.3678 24.1306C17.1812 23.5707 16.7418 23.1313 16.182 22.9447L14.7035 22.4519C14.3207 22.3243 14.0625 21.966 14.0625 21.5625C14.0625 21.159 14.3207 20.8007 14.7035 20.6731L16.182 20.1803C16.7418 19.9937 17.1812 19.5543 17.3678 18.9945L17.8606 17.516C17.9882 17.1332 18.3465 16.875 18.75 16.875Z" fill="#959595"/>
</g>
<defs>
<clipPath id="clip0_202_1640">
<rect width="26.25" height="26.25" fill="white"/>
</clipPath>
</defs>
</svg>
