<svg width="120" height="24" viewBox="0 0 120 24" fill="none" xmlns="http://www.w3.org/2000/svg">
<path d="M50.25 2.25C49.8358 2.25 49.5 2.58579 49.5 3C49.5 3.41421 49.8358 3.75 50.25 3.75H51.6357C51.8056 3.75 51.9543 3.86422 51.998 4.02838L54.5558 13.6199C52.9418 14.0385 51.75 15.5051 51.75 17.25C51.75 17.6642 52.0858 18 52.5 18H68.25C68.6642 18 69 17.6642 69 17.25C69 16.8358 68.6642 16.5 68.25 16.5H53.378C53.6869 15.6261 54.5203 15 55.5 15H66.7183C67.0051 15 67.2668 14.8364 67.3925 14.5785C68.5277 12.249 69.5183 9.83603 70.3527 7.35126C70.4191 7.15357 70.4002 6.93716 70.3005 6.75399C70.2008 6.57082 70.0294 6.43743 69.8273 6.38583C65.0055 5.15442 59.9536 4.5 54.75 4.5C54.3922 4.5 54.0351 4.5031 53.6787 4.50926L53.4474 3.64188C53.2285 2.82109 52.4851 2.25 51.6357 2.25H50.25Z" fill="#0F172A"/>
<path d="M51.75 20.25C51.75 19.4216 52.4216 18.75 53.25 18.75C54.0784 18.75 54.75 19.4216 54.75 20.25C54.75 21.0784 54.0784 21.75 53.25 21.75C52.4216 21.75 51.75 21.0784 51.75 20.25Z" fill="#0F172A"/>
<path d="M64.5 20.25C64.5 19.4216 65.1716 18.75 66 18.75C66.8284 18.75 67.5 19.4216 67.5 20.25C67.5 21.0784 66.8284 21.75 66 21.75C65.1716 21.75 64.5 21.0784 64.5 20.25Z" fill="#0F172A"/>
<path fill-rule="evenodd" clip-rule="evenodd" d="M103.5 6C103.5 3.51472 105.515 1.5 108 1.5C110.485 1.5 112.5 3.51472 112.5 6C112.5 8.48528 110.485 10.5 108 10.5C105.515 10.5 103.5 8.48528 103.5 6Z" fill="#0F172A"/>
<path fill-rule="evenodd" clip-rule="evenodd" d="M99.7512 20.1053C99.8286 15.6156 103.492 12 108 12C112.508 12 116.172 15.6157 116.249 20.1056C116.254 20.4034 116.082 20.676 115.812 20.8002C113.433 21.8918 110.786 22.5 108 22.5C105.214 22.5 102.567 21.8917 100.188 20.7999C99.9176 20.6757 99.7461 20.4031 99.7512 20.1053Z" fill="#0F172A"/>
<path d="M11.645 20.9107L11.6384 20.9071L11.6158 20.8949C11.5965 20.8844 11.5689 20.8693 11.5336 20.8496C11.4629 20.8101 11.3612 20.7524 11.233 20.6769C10.9765 20.5261 10.6132 20.3039 10.1785 20.015C9.31074 19.4381 8.15122 18.5901 6.9886 17.5063C4.68781 15.3615 2.25 12.1751 2.25 8.25C2.25 5.32194 4.7136 3 7.6875 3C9.43638 3 11.0023 3.79909 12 5.0516C12.9977 3.79909 14.5636 3 16.3125 3C19.2864 3 21.75 5.32194 21.75 8.25C21.75 12.1751 19.3122 15.3615 17.0114 17.5063C15.8488 18.5901 14.6893 19.4381 13.8215 20.015C13.3868 20.3039 13.0235 20.5261 12.767 20.6769C12.6388 20.7524 12.5371 20.8101 12.4664 20.8496C12.4311 20.8693 12.4035 20.8844 12.3842 20.8949L12.3616 20.9071L12.355 20.9107L12.3523 20.9121C12.1323 21.0289 11.8677 21.0289 11.6477 20.9121L11.645 20.9107Z" fill="#0F172A"/>
</svg>
