<svg width="19" height="18" viewBox="0 0 19 18" fill="none" xmlns="http://www.w3.org/2000/svg">
<g clip-path="url(#clip0_203_665)">
<path d="M1.28396 0.636353C0.926228 0.636353 0.63623 0.92635 0.63623 1.28408C0.63623 1.64181 0.926228 1.93181 1.28396 1.93181H2.48069C2.62742 1.93181 2.75581 2.03045 2.79362 2.17222L5.00257 10.4558C3.60868 10.8173 2.57941 12.0839 2.57941 13.5909C2.57941 13.9486 2.86941 14.2386 3.22714 14.2386H16.8294C17.1871 14.2386 17.4771 13.9486 17.4771 13.5909C17.4771 13.2332 17.1871 12.9432 16.8294 12.9432H3.98544C4.2522 12.1884 4.97198 11.6477 5.81805 11.6477H15.5065C15.7543 11.6477 15.9803 11.5064 16.0888 11.2837C17.0692 9.27187 17.9248 7.18792 18.6454 5.04198C18.7027 4.87125 18.6864 4.68436 18.6003 4.52616C18.5142 4.36797 18.3661 4.25277 18.1916 4.2082C14.0273 3.14471 9.66436 2.57953 5.17032 2.57953C4.86129 2.57953 4.55287 2.58221 4.24509 2.58753L4.04533 1.83843C3.8563 1.12956 3.21431 0.636353 2.48069 0.636353H1.28396Z" fill="black"/>
<path d="M2.57941 16.1818C2.57941 15.4663 3.15941 14.8864 3.87487 14.8864C4.59033 14.8864 5.17032 15.4663 5.17032 16.1818C5.17032 16.8973 4.59033 17.4773 3.87487 17.4773C3.15941 17.4773 2.57941 16.8973 2.57941 16.1818Z" fill="black"/>
<path d="M13.5908 16.1818C13.5908 15.4663 14.1708 14.8864 14.8862 14.8864C15.6017 14.8864 16.1817 15.4663 16.1817 16.1818C16.1817 16.8973 15.6017 17.4773 14.8862 17.4773C14.1708 17.4773 13.5908 16.8973 13.5908 16.1818Z" fill="black"/>
</g>
<defs>
<clipPath id="clip0_203_665">
<rect width="18.043" height="16.8409" fill="white" transform="translate(0.63623 0.636353)"/>
</clipPath>
</defs>
</svg>
