<svg width="19" height="18" viewBox="0 0 19 18" fill="none" xmlns="http://www.w3.org/2000/svg">
<path d="M0.943182 0.943182C0.585452 0.943182 0.295455 1.23318 0.295455 1.59091C0.295455 1.94864 0.585452 2.23864 0.943182 2.23864H2.13991C2.28664 2.23864 2.41504 2.33728 2.45284 2.47905L4.66179 10.7626C3.2679 11.1242 2.23864 12.3907 2.23864 13.8977C2.23864 14.2555 2.52863 14.5455 2.88636 14.5455H16.4886C16.8464 14.5455 17.1364 14.2555 17.1364 13.8977C17.1364 13.54 16.8464 13.25 16.4886 13.25H3.64466C3.91142 12.4953 4.6312 11.9545 5.47727 11.9545H15.1658C15.4135 11.9545 15.6395 11.8133 15.748 11.5906C16.7284 9.5787 17.584 7.49475 18.3046 5.34881C18.3619 5.17808 18.3456 4.99119 18.2595 4.83299C18.1734 4.6748 18.0254 4.5596 17.8509 4.51503C13.6866 3.45154 9.32358 2.88636 4.82955 2.88636C4.52051 2.88636 4.21209 2.88904 3.90432 2.89436L3.70455 2.14526C3.51552 1.43639 2.87354 0.943182 2.13991 0.943182H0.943182Z" fill="black"/>
<path d="M2.23864 16.4886C2.23864 15.7732 2.81863 15.1932 3.53409 15.1932C4.24955 15.1932 4.82955 15.7732 4.82955 16.4886C4.82955 17.2041 4.24955 17.7841 3.53409 17.7841C2.81863 17.7841 2.23864 17.2041 2.23864 16.4886Z" fill="black"/>
<path d="M13.25 16.4886C13.25 15.7732 13.83 15.1932 14.5455 15.1932C15.2609 15.1932 15.8409 15.7732 15.8409 16.4886C15.8409 17.2041 15.2609 17.7841 14.5455 17.7841C13.83 17.7841 13.25 17.2041 13.25 16.4886Z" fill="black"/>
</svg>
