<svg width="18" height="16" viewBox="0 0 18 16" fill="none" xmlns="http://www.w3.org/2000/svg">
<g clip-path="url(#clip0_203_670)">
<path d="M8.2206 15.6718L8.21488 15.6688L8.19506 15.658C8.17818 15.6489 8.15404 15.6356 8.12313 15.6184C8.0613 15.5839 7.97233 15.5334 7.86009 15.4673C7.63569 15.3353 7.31778 15.1409 6.93748 14.8881C6.17815 14.3833 5.16356 13.6413 4.14627 12.693C2.13309 10.8164 0 8.02821 0 4.59375C0 2.0317 2.15565 0 4.75781 0C6.28808 0 7.65828 0.699202 8.53125 1.79515C9.40422 0.699202 10.7744 0 12.3047 0C14.9068 0 17.0625 2.0317 17.0625 4.59375C17.0625 8.02821 14.9294 10.8164 12.9162 12.693C11.8989 13.6413 10.8844 14.3833 10.125 14.8881C9.74472 15.1409 9.42681 15.3353 9.20241 15.4673C9.09017 15.5334 9.0012 15.5839 8.93937 15.6184C8.90846 15.6356 8.88432 15.6489 8.86744 15.658L8.84762 15.6688L8.8419 15.6718L8.83949 15.6731C8.64702 15.7753 8.41548 15.7753 8.22301 15.6731L8.2206 15.6718Z" fill="black"/>
</g>
<defs>
<clipPath id="clip0_203_670">
<rect width="17.0625" height="15.7498" fill="white"/>
</clipPath>
</defs>
</svg>
