<svg width="14" height="14" viewBox="0 0 14 14" fill="none" xmlns="http://www.w3.org/2000/svg">
<path fill-rule="evenodd" clip-rule="evenodd" d="M3.72601 1.01497C3.47784 0.44912 3.20219 0.43537 2.96777 0.43537C2.76082 0.421634 2.53934 0.421634 2.30492 0.421634C2.08504 0.421634 1.71239 0.504092 1.39551 0.849248C1.07783 1.19361 0.209647 2.00763 0.209647 3.67608C0.209647 5.34539 1.423 6.95884 1.58871 7.17953C1.75361 7.40021 3.93294 10.9303 7.38136 12.2964C10.2494 13.4273 10.8291 13.2066 11.4498 13.1371C12.0699 13.0684 13.4498 12.3239 13.7391 11.5237C14.0148 10.7379 14.0148 10.0484 13.9323 9.91007C13.8498 9.77271 13.6146 9.68939 13.2841 9.51002C12.9389 9.34502 11.2841 8.5173 10.9673 8.40661C10.6496 8.29662 10.4289 8.24162 10.2082 8.5723C9.98754 8.91748 9.33918 9.6757 9.13313 9.89639C8.93913 10.1171 8.73295 10.1446 8.40159 9.97888C8.05722 9.81389 6.9675 9.45502 5.67091 8.29662C4.66368 7.39939 3.98791 6.28298 3.78097 5.95244C3.58858 5.60725 3.75348 5.42775 3.93294 5.26207C4.08491 5.11089 4.27811 4.86271 4.44382 4.66953C4.60868 4.47553 4.66368 4.32435 4.78818 4.10367C4.89818 3.88301 4.84318 3.67608 4.76068 3.51118C4.6775 3.3592 4.02994 1.69075 3.72601 1.01497Z" fill="black"/>
</svg>
