<svg width="15" height="15" viewBox="0 0 15 15" fill="none" xmlns="http://www.w3.org/2000/svg">
<path fill-rule="evenodd" clip-rule="evenodd" d="M6.08509 12.1702C7.47251 12.1702 8.75201 11.7053 9.77675 10.9232L13.625 14.7722C13.778 14.92 13.983 15.0018 14.1957 15C14.4084 14.9981 14.6119 14.9128 14.7624 14.7624C14.9128 14.6119 14.9981 14.4084 15 14.1957C15.0018 13.983 14.92 13.778 14.7722 13.625L10.9232 9.77595C11.7559 8.6844 12.195 7.34332 12.1692 5.97064C12.1434 4.59795 11.6541 3.27434 10.7809 2.21489C9.90769 1.15544 8.70187 0.422406 7.35938 0.134914C6.01688 -0.152577 4.61662 0.0223666 3.38613 0.631318C2.15563 1.24027 1.16723 2.24744 0.581524 3.48916C-0.00418022 4.73089 -0.15276 6.13419 0.159929 7.47103C0.472618 8.80788 1.2282 9.99969 2.30389 10.8528C3.37958 11.7059 4.71216 12.1702 6.08509 12.1702ZM10.5475 6.08513C10.5475 7.26863 10.0774 8.40367 9.24051 9.24054C8.40364 10.0774 7.26861 10.5475 6.08509 10.5475C4.90158 10.5475 3.76654 10.0774 2.92968 9.24054C2.09281 8.40367 1.62266 7.26863 1.62266 6.08513C1.62266 4.90162 2.09281 3.76658 2.92968 2.92972C3.76654 2.09285 4.90158 1.62271 6.08509 1.62271C7.26861 1.62271 8.40364 2.09285 9.24051 2.92972C10.0774 3.76658 10.5475 4.90162 10.5475 6.08513Z" fill="black"/>
</svg>
