<svg width="19" height="18" viewBox="0 0 19 18" fill="none" xmlns="http://www.w3.org/2000/svg">
<g clip-path="url(#clip0_190_5083)">
<path d="M1.28396 0.63623C0.926228 0.63623 0.63623 0.926228 0.63623 1.28396C0.63623 1.64169 0.926228 1.93168 1.28396 1.93168H2.48069C2.62742 1.93168 2.75581 2.03033 2.79362 2.1721L5.00257 10.4557C3.60868 10.8172 2.57941 12.0838 2.57941 13.5908C2.57941 13.9485 2.86941 14.2385 3.22714 14.2385H16.8294C17.1871 14.2385 17.4771 13.9485 17.4771 13.5908C17.4771 13.233 17.1871 12.943 16.8294 12.943H3.98544C4.2522 12.1883 4.97198 11.6476 5.81805 11.6476H15.5065C15.7543 11.6476 15.9803 11.5063 16.0888 11.2836C17.0692 9.27175 17.9248 7.1878 18.6454 5.04186C18.7027 4.87113 18.6864 4.68424 18.6003 4.52604C18.5142 4.36785 18.3661 4.25264 18.1916 4.20808C14.0273 3.14459 9.66436 2.57941 5.17032 2.57941C4.86129 2.57941 4.55287 2.58209 4.24509 2.58741L4.04533 1.83831C3.8563 1.12944 3.21431 0.63623 2.48069 0.63623H1.28396Z" fill="black"/>
<path d="M2.57941 16.1817C2.57941 15.4662 3.15941 14.8862 3.87487 14.8862C4.59033 14.8862 5.17032 15.4662 5.17032 16.1817C5.17032 16.8971 4.59033 17.4771 3.87487 17.4771C3.15941 17.4771 2.57941 16.8971 2.57941 16.1817Z" fill="black"/>
<path d="M13.5908 16.1817C13.5908 15.4662 14.1708 14.8862 14.8862 14.8862C15.6017 14.8862 16.1817 15.4662 16.1817 16.1817C16.1817 16.8971 15.6017 17.4771 14.8862 17.4771C14.1708 17.4771 13.5908 16.8971 13.5908 16.1817Z" fill="black"/>
</g>
<defs>
<clipPath id="clip0_190_5083">
<rect width="18.043" height="16.8408" fill="white" transform="translate(0.63623 0.63623)"/>
</clipPath>
</defs>
</svg>
