<svg width="19" height="19" viewBox="0 0 19 19" fill="none" xmlns="http://www.w3.org/2000/svg">
<g clip-path="url(#clip0_190_5088)">
<path fill-rule="evenodd" clip-rule="evenodd" d="M6.61869 2.73327C6.90784 2.73327 7.16195 2.92495 7.24139 3.20297L7.94357 5.6606C8.25091 6.73631 9.09177 7.57716 10.1675 7.88451L12.6251 8.58669C12.9031 8.66613 13.0948 8.92024 13.0948 9.20938C13.0948 9.49853 12.9031 9.75264 12.6251 9.83208L10.1675 10.5343C9.09177 10.8416 8.25091 11.6825 7.94357 12.7582L7.24139 15.2158C7.16195 15.4938 6.90784 15.6855 6.61869 15.6855C6.32955 15.6855 6.07543 15.4938 5.996 15.2158L5.29382 12.7582C4.98647 11.6825 4.14562 10.8416 3.06991 10.5343L0.612277 9.83208C0.334256 9.75264 0.142578 9.49853 0.142578 9.20938C0.142578 8.92024 0.334256 8.66613 0.612277 8.58669L3.06991 7.88451C4.14562 7.57716 4.98647 6.73631 5.29382 5.6606L5.996 3.20297C6.07543 2.92495 6.32955 2.73327 6.61869 2.73327Z" fill="black"/>
<path fill-rule="evenodd" clip-rule="evenodd" d="M14.39 0.142822C14.6872 0.142822 14.9462 0.34507 15.0183 0.633365L15.2418 1.52747C15.4449 2.33957 16.079 2.97366 16.8911 3.17669L17.7852 3.40022C18.0735 3.47229 18.2757 3.73132 18.2757 4.02849C18.2757 4.32566 18.0735 4.58469 17.7852 4.65677L16.8911 4.88029C16.079 5.08332 15.4449 5.71741 15.2418 6.52952L15.0183 7.42362C14.9462 7.71191 14.6872 7.91416 14.39 7.91416C14.0929 7.91416 13.8338 7.71191 13.7618 7.42362L13.5382 6.52952C13.3352 5.71741 12.7011 5.08332 11.889 4.88029L10.9949 4.65677C10.7066 4.58469 10.5044 4.32566 10.5044 4.02849C10.5044 3.73132 10.7066 3.47229 10.9949 3.40022L11.889 3.17669C12.7011 2.97367 13.3352 2.33957 13.5382 1.52747L13.7618 0.633365C13.8338 0.34507 14.0929 0.142822 14.39 0.142822Z" fill="black"/>
<path fill-rule="evenodd" clip-rule="evenodd" d="M13.0948 11.7998C13.3736 11.7998 13.621 11.9782 13.7092 12.2427L14.0496 13.2639C14.1785 13.6507 14.482 13.9542 14.8688 14.0831L15.89 14.4235C16.1545 14.5117 16.3329 14.7591 16.3329 15.0379C16.3329 15.3166 16.1545 15.5641 15.89 15.6523L14.8688 15.9927C14.482 16.1216 14.1785 16.4251 14.0496 16.8119L13.7092 17.8331C13.621 18.0976 13.3736 18.2759 13.0948 18.2759C12.8161 18.2759 12.5686 18.0976 12.4804 17.8331L12.14 16.8119C12.0111 16.4251 11.7076 16.1216 11.3208 15.9927L10.2996 15.6523C10.0351 15.5641 9.85675 15.3166 9.85675 15.0379C9.85675 14.7591 10.0351 14.5117 10.2996 14.4235L11.3208 14.0831C11.7076 13.9542 12.0111 13.6507 12.14 13.2639L12.4804 12.2427C12.5686 11.9782 12.8161 11.7998 13.0948 11.7998Z" fill="black"/>
</g>
<defs>
<clipPath id="clip0_190_5088">
<rect width="18.1333" height="18.1331" fill="white" transform="translate(0.142578 0.142822)"/>
</clipPath>
</defs>
</svg>
