<svg width="19" height="18" viewBox="0 0 19 18" fill="none" xmlns="http://www.w3.org/2000/svg">
<g clip-path="url(#clip0_190_5623)">
<path d="M6.80203 1.29562C5.90759 1.29562 5.1825 2.02071 5.1825 2.91516C5.1825 3.8096 5.90759 4.53469 6.80203 4.53469H8.42156V8.42156H1.61953C0.72509 8.42156 0 7.69647 0 6.80203V6.15422C0 5.25978 0.725089 4.53469 1.61953 4.53469H4.37777C4.0677 4.07147 3.88687 3.51443 3.88687 2.91516C3.88687 1.30516 5.19204 0 6.80203 0C7.7178 0 8.53495 0.422267 9.06938 1.08271C9.60381 0.422267 10.4209 0 11.3367 0C12.9467 0 14.2519 1.30516 14.2519 2.91516C14.2519 3.51443 14.071 4.07147 13.761 4.53469H17.167C18.0615 4.53469 18.7866 5.25978 18.7866 6.15422V6.80203C18.7866 7.69647 18.0615 8.42156 17.167 8.42156H9.71719V4.53469H11.3367C12.2312 4.53469 12.9562 3.8096 12.9562 2.91516C12.9562 2.02071 12.2312 1.29562 11.3367 1.29562C10.4423 1.29562 9.71719 2.02071 9.71719 2.91516V4.53469H8.42156V2.91516C8.42156 2.02071 7.69647 1.29562 6.80203 1.29562Z" fill="#959595"/>
<path d="M8.42156 9.71719H1.29562V15.5475C1.29562 16.6208 2.16573 17.4909 3.23906 17.4909H8.42156V9.71719Z" fill="#959595"/>
<path d="M9.71719 9.71719V17.4909H15.5475C16.6208 17.4909 17.4909 16.6208 17.4909 15.5475V9.71719H9.71719Z" fill="#959595"/>
</g>
<defs>
<clipPath id="clip0_190_5623">
<rect width="18.7861" height="17.491" fill="white"/>
</clipPath>
</defs>
</svg>
