<svg width="19" height="18" viewBox="0 0 19 18" fill="none" xmlns="http://www.w3.org/2000/svg">
<g clip-path="url(#clip0_190_5618)">
<path d="M1.28347 0.636353C0.92574 0.636353 0.635742 0.92635 0.635742 1.28408C0.635742 1.64181 0.92574 1.93181 1.28347 1.93181H2.4802C2.62693 1.93181 2.75532 2.03045 2.79313 2.17222L5.00208 10.4558C3.60819 10.8173 2.57892 12.0839 2.57892 13.5909C2.57892 13.9486 2.86892 14.2386 3.22665 14.2386H16.8289C17.1867 14.2386 17.4767 13.9486 17.4767 13.5909C17.4767 13.2332 17.1867 12.9432 16.8289 12.9432H3.98495C4.25171 12.1884 4.97149 11.6477 5.81756 11.6477H15.5061C15.7538 11.6477 15.9798 11.5064 16.0883 11.2837C17.0687 9.27187 17.9243 7.18792 18.6449 5.04198C18.7022 4.87125 18.6859 4.68436 18.5998 4.52616C18.5137 4.36797 18.3656 4.25277 18.1911 4.2082C14.0268 3.14471 9.66387 2.57953 5.16983 2.57953C4.8608 2.57953 4.55238 2.58221 4.2446 2.58753L4.04484 1.83843C3.85581 1.12956 3.21383 0.636353 2.4802 0.636353H1.28347Z" fill="#959595"/>
<path d="M2.57892 16.1818C2.57892 15.4663 3.15892 14.8864 3.87438 14.8864C4.58984 14.8864 5.16983 15.4663 5.16983 16.1818C5.16983 16.8973 4.58984 17.4773 3.87438 17.4773C3.15892 17.4773 2.57892 16.8973 2.57892 16.1818Z" fill="#959595"/>
<path d="M13.5903 16.1818C13.5903 15.4663 14.1703 14.8864 14.8857 14.8864C15.6012 14.8864 16.1812 15.4663 16.1812 16.1818C16.1812 16.8973 15.6012 17.4773 14.8857 17.4773C14.1703 17.4773 13.5903 16.8973 13.5903 16.1818Z" fill="#959595"/>
</g>
<defs>
<clipPath id="clip0_190_5618">
<rect width="18.043" height="16.8409" fill="white" transform="translate(0.635742 0.636353)"/>
</clipPath>
</defs>
</svg>
