<svg width="21" height="22" viewBox="0 0 21 22" fill="none" xmlns="http://www.w3.org/2000/svg">
<path d="M2.07955 2.57955C1.72182 2.57955 1.43182 2.86954 1.43182 3.22727C1.43182 3.585 1.72182 3.875 2.07955 3.875H3.27628C3.42301 3.875 3.5514 3.97365 3.58921 4.11542L5.79816 12.399C4.40427 12.7605 3.375 14.0271 3.375 15.5341C3.375 15.8918 3.665 16.1818 4.02273 16.1818H17.625C17.9827 16.1818 18.2727 15.8918 18.2727 15.5341C18.2727 15.1764 17.9827 14.8864 17.625 14.8864H4.78103C5.04778 14.1316 5.76756 13.5909 6.61364 13.5909H16.3021C16.5499 13.5909 16.7759 13.4496 16.8844 13.2269C17.8648 11.2151 18.7204 9.13112 19.441 6.98518C19.4983 6.81445 19.482 6.62755 19.3959 6.46936C19.3098 6.31117 19.1617 6.19596 18.9872 6.1514C14.8229 5.08791 10.4599 4.52273 5.96591 4.52273C5.65687 4.52273 5.34846 4.5254 5.04068 4.53073L4.84092 3.78162C4.65189 3.07276 4.0099 2.57955 3.27628 2.57955H2.07955Z" fill="#959595"/>
<path d="M3.375 18.125C3.375 17.4095 3.955 16.8295 4.67046 16.8295C5.38592 16.8295 5.96591 17.4095 5.96591 18.125C5.96591 18.8405 5.38592 19.4205 4.67046 19.4205C3.955 19.4205 3.375 18.8405 3.375 18.125Z" fill="#959595"/>
<path d="M14.3864 18.125C14.3864 17.4095 14.9664 16.8295 15.6818 16.8295C16.3973 16.8295 16.9773 17.4095 16.9773 18.125C16.9773 18.8405 16.3973 19.4205 15.6818 19.4205C14.9664 19.4205 14.3864 18.8405 14.3864 18.125Z" fill="#959595"/>
</svg>
