<svg width="27" height="23" viewBox="0 0 27 23" fill="none" xmlns="http://www.w3.org/2000/svg">
<g clip-path="url(#clip0_190_5263)">
<path d="M12.1875 0V5.05798C10.7185 3.65887 8.39329 3.68055 6.95083 5.12301C5.52371 6.55012 5.48731 8.84131 6.84162 10.3125H0V2.8125C0 1.2592 1.2592 0 2.8125 0H12.1875Z" fill="#959595"/>
<path d="M14.0625 0V5.01377C15.5337 3.65946 17.8249 3.69586 19.252 5.12297C20.6791 6.5501 20.7155 8.84131 19.3612 10.3125H26.25V2.8125C26.25 1.2592 24.9908 0 23.4375 0H14.0625Z" fill="#959595"/>
<path d="M26.25 12.1875H15.021C15.2578 14.8155 17.4665 16.875 20.1562 16.875C20.674 16.875 21.0938 17.2947 21.0938 17.8125C21.0938 18.3303 20.674 18.75 20.1562 18.75C17.5514 18.75 15.2775 17.3336 14.0625 15.2289V22.5H23.4375C24.9908 22.5 26.25 21.2408 26.25 19.6875V12.1875Z" fill="#959595"/>
<path d="M12.1875 22.5V15.2289C10.9725 17.3336 8.69856 18.75 6.09375 18.75C5.57598 18.75 5.15625 18.3303 5.15625 17.8125C5.15625 17.2947 5.57598 16.875 6.09375 16.875C8.78346 16.875 10.9922 14.8155 11.229 12.1875H0V19.6875C0 21.2408 1.2592 22.5 2.8125 22.5H12.1875Z" fill="#959595"/>
<path d="M11.9818 9.19194C12.0193 9.56421 12.0293 9.91072 12.0269 10.1991C11.7385 10.2014 11.392 10.1915 11.0198 10.154C9.97866 10.0492 8.92377 9.74761 8.27665 9.10048C7.54442 8.36825 7.54442 7.18107 8.27665 6.44883C9.00888 5.7166 10.1961 5.7166 10.9283 6.44883C11.5754 7.09596 11.877 8.15084 11.9818 9.19194Z" fill="#959595"/>
<path d="M14.221 9.19191C14.1835 9.56418 14.1736 9.91069 14.1759 10.199C14.4643 10.2014 14.8108 10.1914 15.1831 10.154C16.2242 10.0492 17.279 9.74757 17.9262 9.10045C18.6584 8.36822 18.6584 7.18103 17.9262 6.4488C17.1939 5.71657 16.0067 5.71657 15.2745 6.4488C14.6274 7.09592 14.3258 8.1508 14.221 9.19191Z" fill="#959595"/>
</g>
<defs>
<clipPath id="clip0_190_5263">
<rect width="26.25" height="22.5" fill="white"/>
</clipPath>
</defs>
</svg>
