<svg width="20" height="20" viewBox="0 0 20 20" fill="none" xmlns="http://www.w3.org/2000/svg">
<g clip-path="url(#clip0_204_1544)">
<path d="M13.4998 6C13.914 6 14.2498 6.33579 14.2498 6.75C14.2498 7.87013 13.7577 8.87627 12.9804 9.5623C12.6699 9.8364 12.1959 9.80685 11.9218 9.4963C11.6477 9.18575 11.6773 8.71179 11.9878 8.4377C12.4562 8.02432 12.7498 7.42191 12.7498 6.75C12.7498 6.33579 13.0856 6 13.4998 6Z" fill="#959595"/>
<path fill-rule="evenodd" clip-rule="evenodd" d="M9.75 0C4.36522 0 0 4.36522 0 9.75C0 15.1348 4.36522 19.5 9.75 19.5C15.1348 19.5 19.5 15.1348 19.5 9.75C19.5 4.36522 15.1348 0 9.75 0ZM2.3249 13.3502C3.66195 16.1027 6.4844 18 9.75 18C10.4123 18 11.0563 17.922 11.6734 17.7746C11.3864 17.0103 10.6544 16.5 9.83282 16.5C9.35224 16.5 8.94209 16.1526 8.86309 15.6785L8.79012 15.2407C8.69606 14.6763 9.0406 14.1313 9.59075 13.9741L10.5795 13.6916C11.0067 13.5695 11.3631 13.2737 11.5619 12.8763L11.5984 12.8033C11.8445 12.311 12.3477 12 12.8981 12C13.2835 12 13.6531 12.1531 13.9256 12.4256L14.25 12.75H14.8783C15.7169 12.75 16.474 13.2146 16.8608 13.9357C17.5847 12.7086 18 11.2778 18 9.75C18 5.4518 14.713 1.92132 10.5156 1.53506C10.56 1.79802 10.6968 2.039 10.9048 2.21233L11.9734 3.10284C12.4151 3.4709 12.5082 4.11275 12.1893 4.59112L11.6782 5.35766C11.4007 5.77398 10.9923 6.0859 10.5176 6.24413L10.3754 6.29154C9.68271 6.52243 9.39918 7.34877 9.8042 7.9563C10.1737 8.51049 9.9738 9.2631 9.37805 9.56097L6.75 10.875L7.17339 11.9335C7.358 12.395 7.15803 12.921 6.71343 13.1433C6.3003 13.3499 5.79855 13.2314 5.52142 12.8619L4.84217 11.9562C4.34039 11.2872 3.30995 11.3801 2.93594 12.1281L2.3249 13.3502Z" fill="#959595"/>
</g>
<defs>
<clipPath id="clip0_204_1544">
<rect width="19.5" height="19.5" fill="white"/>
</clipPath>
</defs>
</svg>
