<svg width="29" height="28" viewBox="0 0 29 28" fill="none" xmlns="http://www.w3.org/2000/svg">
<circle cx="14.5661" cy="14" r="12" fill="black"/>
<path fill-rule="evenodd" clip-rule="evenodd" d="M28.5661 14C28.5661 21.7319 22.298 28 14.5661 28C6.83408 28 0.566074 21.7319 0.566074 14C0.566074 6.26801 6.83408 0 14.5661 0C22.298 0 28.5661 6.26801 28.5661 14ZM15.0677 10.3354C13.7061 10.9018 10.9846 12.074 6.90327 13.8522C6.24053 14.1158 5.89335 14.3737 5.86176 14.6257C5.80835 15.0518 6.3419 15.2195 7.06844 15.448C7.16728 15.4791 7.26968 15.5113 7.37465 15.5453C8.08946 15.7777 9.05103 16.0496 9.5509 16.0604C10.0043 16.0702 10.5104 15.8833 11.0691 15.4995C14.8825 12.9255 16.8509 11.6245 16.9744 11.5963C17.0616 11.5766 17.1824 11.5517 17.2643 11.6245C17.3462 11.6973 17.3381 11.835 17.3294 11.872C17.2766 12.0974 15.1822 14.0445 14.0983 15.0521C13.7605 15.3663 13.5208 15.589 13.4718 15.64C13.3621 15.7539 13.2502 15.8617 13.1427 15.9653C12.4787 16.6055 11.9806 17.0856 13.1703 17.8696C13.742 18.2463 14.1994 18.5578 14.6558 18.8686C15.1542 19.2081 15.6514 19.5467 16.2947 19.9683C16.4585 20.0757 16.615 20.1873 16.7674 20.2959C17.3475 20.7095 17.8685 21.0811 18.5124 21.0217C18.8865 20.9874 19.2729 20.6356 19.4692 19.5864C19.933 17.107 20.8447 11.7348 21.0554 9.52113C21.0738 9.32719 21.0506 9.07897 21.032 8.97001C21.0132 8.86105 20.9743 8.70579 20.8326 8.59086C20.6649 8.45475 20.406 8.42605 20.2901 8.428C19.7636 8.43738 18.9556 8.71829 15.0677 10.3354Z" fill="white"/>
</svg>
