<svg width="28" height="28" viewBox="0 0 28 28" fill="none" xmlns="http://www.w3.org/2000/svg">
<path d="M0.566071 27.6814L2.49723 20.6616C1.31064 18.6023 0.687507 16.2667 0.690558 13.89C0.676822 6.40063 6.75889 0.318562 14.2338 0.318562C17.8617 0.318562 21.2681 1.7251 23.833 4.29083C25.0973 5.54851 26.0993 7.04457 26.7812 8.69234C27.4631 10.3401 27.8112 12.1068 27.8053 13.89C27.8053 21.365 21.7232 27.4471 14.2475 27.4471C11.972 27.4471 9.75143 26.8812 7.7653 25.7923L0.566071 27.6814ZM8.08298 23.3511L8.49686 23.5992C10.234 24.6272 12.2153 25.1701 14.2338 25.1714C20.4403 25.1714 25.5023 20.1104 25.5023 13.903C25.5023 10.8967 24.3302 8.05615 22.2057 5.9326C21.1612 4.88205 19.9189 4.04861 18.5507 3.48036C17.1825 2.91208 15.7153 2.62022 14.2338 2.62157C8.01347 2.62238 2.95315 7.6835 2.95315 13.8908C2.95315 16.0145 3.54648 18.0976 4.67737 19.8905L4.93927 20.3181L3.79464 24.4827L8.08298 23.3511Z" fill="white"/>
<path fill-rule="evenodd" clip-rule="evenodd" d="M10.8548 8.20813C10.6066 7.64228 10.331 7.62853 10.0966 7.62853C9.88963 7.61479 9.66814 7.6148 9.43372 7.6148C9.21384 7.6148 8.84119 7.69725 8.52431 8.04241C8.20663 8.38677 7.33845 9.20079 7.33845 10.8692C7.33845 12.5386 8.5518 14.152 8.71751 14.3727C8.88241 14.5934 11.0617 18.1235 14.5102 19.4895C17.3782 20.6205 17.9579 20.3998 18.5786 20.3303C19.1987 20.2616 20.5786 19.517 20.8679 18.7168C21.1436 17.9311 21.1436 17.2415 21.0611 17.1032C20.9786 16.9659 20.7434 16.8825 20.4129 16.7032C20.0677 16.5382 18.4129 15.7105 18.0961 15.5998C17.7784 15.4898 17.5577 15.4348 17.337 15.7655C17.1163 16.1106 16.468 16.8689 16.2619 17.0895C16.0679 17.3102 15.8618 17.3377 15.5304 17.172C15.186 17.007 14.0963 16.6482 12.7997 15.4898C11.7925 14.5925 11.1167 13.4761 10.9098 13.1456C10.7174 12.8004 10.8823 12.6209 11.0617 12.4552C11.2137 12.3041 11.4069 12.0559 11.5726 11.8627C11.7375 11.6687 11.7925 11.5175 11.917 11.2968C12.027 11.0762 11.972 10.8692 11.8895 10.7043C11.8063 10.5524 11.1587 8.88391 10.8548 8.20813Z" fill="white"/>
</svg>
